<svg xmlns="http://www.w3.org/2000/svg" version="1.1" xmlns:xlink="http://www.w3.org/1999/xlink" xmlns:svgjs="http://svgjs.dev/svgjs" width="1000" height="196" viewBox="0 0 1000 196"><g transform="matrix(1,0,0,1,-0.6060606060606233,0.601641831542338)"><svg viewBox="0 0 396 78" data-background-color="#8d021f" preserveAspectRatio="xMidYMid meet" height="196" width="1000" xmlns="http://www.w3.org/2000/svg" xmlns:xlink="http://www.w3.org/1999/xlink"><defs></defs><g id="tight-bounds" transform="matrix(1,0,0,1,0.2400000000000091,-0.23942817108306258)"><svg viewBox="0 0 395.52 78.47885706322745" height="78.47885706322745" width="395.52"><g><svg viewBox="0 0 476.53701859944465 94.55420855583127" height="78.47885706322745" width="395.52"><g transform="matrix(1,0,0,1,81.01701859944467,29.218622888337467)"><svg viewBox="0 0 395.52 36.11696277915633" height="36.11696277915633" width="395.52"><g><svg viewBox="0 0 395.52 36.11696277915633" height="36.11696277915633" width="395.52"><g><svg viewBox="0 0 395.52 36.11696277915633" height="36.11696277915633" width="395.52"><g transform="matrix(1,0,0,1,0,0)"><svg width="395.52" viewBox="1.2000000476837158 -36.099998474121094 402.9700012207031 36.79999923706055" height="36.11696277915633" data-palette-color="#ffffff"><path d="M32.95-35.4L32.95-35.4Q32.75-32.65 32.68-30.1 32.6-27.55 32.6-26.2L32.6-26.2Q32.6-25.1 32.65-24.15 32.7-23.2 32.75-22.5L32.75-22.5 31.6-22.5Q30.6-26.95 29.2-29.53 27.8-32.1 26.03-33.18 24.25-34.25 22.2-34.25L22.2-34.25 21.6-34.25 21.6-5.7Q21.6-3.65 22.03-2.65 22.45-1.65 23.63-1.33 24.8-1 27.05-1L27.05-1 27.05 0Q25.4-0.05 22.63-0.1 19.85-0.15 16.85-0.15L16.85-0.15Q13.9-0.15 11.3-0.1 8.7-0.05 7.1 0L7.1 0 7.1-1Q9.35-1 10.55-1.33 11.75-1.65 12.15-2.65 12.55-3.65 12.55-5.7L12.55-5.7 12.55-34.25 12-34.25Q9.9-34.25 8.15-33.18 6.4-32.1 5-29.55 3.6-27 2.55-22.5L2.55-22.5 1.4-22.5Q1.5-23.2 1.53-24.15 1.55-25.1 1.55-26.2L1.55-26.2Q1.55-27.55 1.48-30.1 1.4-32.65 1.2-35.4L1.2-35.4Q3.55-35.35 6.38-35.3 9.2-35.25 12-35.25 14.8-35.25 17.1-35.25L17.1-35.25Q19.4-35.25 22.23-35.25 25.05-35.25 27.85-35.3 30.65-35.35 32.95-35.4ZM54.4-36.1L54.4-36.1Q59.9-36.1 64-33.95 68.1-31.8 70.37-27.78 72.65-23.75 72.65-18L72.65-18Q72.65-12.4 70.32-8.2 68-4 63.85-1.65 59.7 0.7 54.35 0.7L54.35 0.7Q48.9 0.7 44.77-1.45 40.65-3.6 38.37-7.65 36.1-11.7 36.1-17.4L36.1-17.4Q36.1-23 38.47-27.2 40.85-31.4 44.95-33.75 49.05-36.1 54.4-36.1ZM54.2-35.2L54.2-35.2Q51.55-35.2 49.6-32.95 47.65-30.7 46.57-26.75 45.5-22.8 45.5-17.6L45.5-17.6Q45.5-12.3 46.72-8.38 47.95-4.45 50-2.33 52.05-0.2 54.55-0.2L54.55-0.2Q57.2-0.2 59.17-2.45 61.15-4.7 62.2-8.68 63.25-12.65 63.25-17.8L63.25-17.8Q63.25-23.15 62.05-27.05 60.85-30.95 58.77-33.08 56.7-35.2 54.2-35.2ZM75.8-34.4L75.8-35.4Q77.15-35.35 79.4-35.3 81.65-35.25 83.9-35.25L83.9-35.25Q86.34-35.25 88.62-35.3 90.9-35.35 91.84-35.35L91.84-35.35Q99.15-35.35 102.72-32.6 106.3-29.85 106.3-25.5L106.3-25.5Q106.3-23.7 105.57-21.73 104.84-19.75 103.12-18.07 101.4-16.4 98.37-15.35 95.34-14.3 90.75-14.3L90.75-14.3 85.55-14.3 85.55-15.3 90.25-15.3Q93-15.3 94.42-16.65 95.84-18 96.37-20.2 96.9-22.4 96.9-24.95L96.9-24.95Q96.9-29.7 95.65-32.05 94.4-34.4 91.4-34.4L91.4-34.4Q89.55-34.4 89.02-33.55 88.5-32.7 88.5-30.1L88.5-30.1 88.5-5.7Q88.5-3.7 88.9-2.73 89.3-1.75 90.5-1.45 91.7-1.15 93.95-1.1L93.95-1.1 93.95 0Q92.3-0.05 89.7-0.1 87.09-0.15 84.25-0.15L84.25-0.15Q82-0.15 79.82-0.1 77.65-0.05 75.8 0L75.8 0 75.8-1Q77.34-1.1 78.12-1.4 78.9-1.7 79.17-2.6 79.45-3.5 79.45-5.3L79.45-5.3 79.45-30.1Q79.45-31.95 79.17-32.83 78.9-33.7 78.12-34.02 77.34-34.35 75.8-34.4L75.8-34.4ZM146.09-35.4L146.09-35.4Q145.89-33 145.81-30.8 145.74-28.6 145.74-27.4L145.74-27.4Q145.74-26.3 145.79-25.35 145.84-24.4 145.89-23.7L145.89-23.7 144.74-23.7Q143.99-27.7 142.67-30.03 141.34-32.35 139.62-33.3 137.89-34.25 135.84-34.25L135.84-34.25 134.69-34.25Q133.34-34.25 132.62-34.02 131.89-33.8 131.67-33.1 131.44-32.4 131.44-30.9L131.44-30.9 131.44-5.7Q131.44-3.7 131.84-2.73 132.24-1.75 133.44-1.45 134.64-1.15 136.89-1.1L136.89-1.1 136.89 0Q135.24-0.05 132.64-0.1 130.04-0.15 127.19-0.15L127.19-0.15Q124.94-0.15 122.77-0.1 120.59-0.05 118.74 0L118.74 0 118.74-1Q120.29-1.1 121.07-1.4 121.84-1.7 122.12-2.6 122.39-3.5 122.39-5.3L122.39-5.3 122.39-30.1Q122.39-31.95 122.12-32.83 121.84-33.7 121.07-34.02 120.29-34.35 118.74-34.4L118.74-34.4 118.74-35.4Q121.54-35.35 124.79-35.3 128.04-35.25 130.97-35.25 133.89-35.25 135.64-35.25L135.64-35.25Q137.94-35.25 140.87-35.27 143.79-35.3 146.09-35.4ZM129.94-18.2L138.74-18.2Q138.74-18.2 138.74-17.7 138.74-17.2 138.74-17.2L138.74-17.2 129.94-17.2Q129.94-17.2 129.94-17.7 129.94-18.2 129.94-18.2L129.94-18.2ZM138.94-24.8L140.09-24.8Q139.89-21.95 139.92-20.45 139.94-18.95 139.94-17.7L139.94-17.7Q139.94-16.45 139.99-14.95 140.04-13.45 140.24-10.6L140.24-10.6 139.09-10.6Q138.79-12.4 137.99-13.9 137.19-15.4 135.87-16.3 134.54-17.2 132.54-17.2L132.54-17.2 132.54-18.2Q134.54-18.2 135.81-19.28 137.09-20.35 137.87-21.88 138.64-23.4 138.94-24.8L138.94-24.8ZM167.14-36.1L167.14-36.1Q172.64-36.1 176.74-33.95 180.84-31.8 183.11-27.78 185.39-23.75 185.39-18L185.39-18Q185.39-12.4 183.06-8.2 180.74-4 176.59-1.65 172.44 0.7 167.09 0.7L167.09 0.7Q161.64 0.7 157.51-1.45 153.39-3.6 151.11-7.65 148.84-11.7 148.84-17.4L148.84-17.4Q148.84-23 151.21-27.2 153.59-31.4 157.69-33.75 161.79-36.1 167.14-36.1ZM166.94-35.2L166.94-35.2Q164.29-35.2 162.34-32.95 160.39-30.7 159.31-26.75 158.24-22.8 158.24-17.6L158.24-17.6Q158.24-12.3 159.46-8.38 160.69-4.45 162.74-2.33 164.79-0.2 167.29-0.2L167.29-0.2Q169.94-0.2 171.91-2.45 173.89-4.7 174.94-8.68 175.99-12.65 175.99-17.8L175.99-17.8Q175.99-23.15 174.79-27.05 173.59-30.95 171.51-33.08 169.44-35.2 166.94-35.2ZM207.63-36.1L207.63-36.1Q213.13-36.1 217.23-33.95 221.33-31.8 223.61-27.78 225.88-23.75 225.88-18L225.88-18Q225.88-12.4 223.56-8.2 221.23-4 217.08-1.65 212.94 0.7 207.58 0.7L207.58 0.7Q202.13 0.7 198.01-1.45 193.88-3.6 191.61-7.65 189.33-11.7 189.33-17.4L189.33-17.4Q189.33-23 191.71-27.2 194.08-31.4 198.19-33.75 202.28-36.1 207.63-36.1ZM207.44-35.2L207.44-35.2Q204.78-35.2 202.83-32.95 200.88-30.7 199.81-26.75 198.73-22.8 198.73-17.6L198.73-17.6Q198.73-12.3 199.96-8.38 201.19-4.45 203.23-2.33 205.28-0.2 207.78-0.2L207.78-0.2Q210.44-0.2 212.41-2.45 214.38-4.7 215.44-8.68 216.48-12.65 216.48-17.8L216.48-17.8Q216.48-23.15 215.28-27.05 214.08-30.95 212.01-33.08 209.94-35.2 207.44-35.2ZM260.83-35.4L260.83-35.4Q260.63-32.65 260.56-30.1 260.48-27.55 260.48-26.2L260.48-26.2Q260.48-25.1 260.53-24.15 260.58-23.2 260.63-22.5L260.63-22.5 259.48-22.5Q258.48-26.95 257.08-29.53 255.68-32.1 253.91-33.18 252.13-34.25 250.08-34.25L250.08-34.25 249.48-34.25 249.48-5.7Q249.48-3.65 249.91-2.65 250.33-1.65 251.51-1.33 252.68-1 254.93-1L254.93-1 254.93 0Q253.28-0.05 250.51-0.1 247.73-0.15 244.73-0.15L244.73-0.15Q241.78-0.15 239.18-0.1 236.58-0.05 234.98 0L234.98 0 234.98-1Q237.23-1 238.43-1.33 239.63-1.65 240.03-2.65 240.43-3.65 240.43-5.7L240.43-5.7 240.43-34.25 239.88-34.25Q237.78-34.25 236.03-33.18 234.28-32.1 232.88-29.55 231.48-27 230.43-22.5L230.43-22.5 229.28-22.5Q229.38-23.2 229.41-24.15 229.43-25.1 229.43-26.2L229.43-26.2Q229.43-27.55 229.36-30.1 229.28-32.65 229.08-35.4L229.08-35.4Q231.43-35.35 234.26-35.3 237.08-35.25 239.88-35.25 242.68-35.25 244.98-35.25L244.98-35.25Q247.28-35.25 250.11-35.25 252.93-35.25 255.73-35.3 258.53-35.35 260.83-35.4ZM293.33-35.45L293.33-35.45 293.33-34.45Q292.23-33.95 291-32.52 289.78-31.1 288.33-28.25L288.33-28.25 279.08-9.95 276.23-9.95 264.53-31.6Q263.68-33.25 262.93-33.83 262.18-34.4 261.63-34.4L261.63-34.4 261.63-35.45Q263.08-35.3 264.63-35.23 266.18-35.15 268.03-35.15L268.03-35.15Q270.43-35.15 273.18-35.25 275.93-35.35 278.23-35.45L278.23-35.45 278.23-34.4Q276.98-34.4 275.95-34.25 274.93-34.1 274.5-33.65 274.08-33.2 274.58-32.15L274.58-32.15 282.33-17.3 280.38-14.75 285.08-24.15Q287.03-28 287.2-30.23 287.38-32.45 286.25-33.43 285.13-34.4 283.13-34.45L283.13-34.45 283.13-35.45Q284.93-35.4 286.4-35.35 287.88-35.3 289.53-35.3L289.53-35.3Q290.58-35.3 291.58-35.35 292.58-35.4 293.33-35.45ZM278.88-12.45L283.03-18.75 283.03-5.3Q283.03-3.5 283.3-2.6 283.58-1.7 284.35-1.4 285.13-1.1 286.68-1L286.68-1 286.68 0Q285.28-0.1 283-0.13 280.73-0.15 278.53-0.15L278.53-0.15Q276.08-0.15 273.85-0.13 271.63-0.1 270.33 0L270.33 0 270.33-1Q271.88-1.1 272.65-1.4 273.43-1.7 273.7-2.6 273.98-3.5 273.98-5.3L273.98-5.3 273.98-15.55 278.88-12.45ZM306.32-34.4L306.32-35.4Q307.67-35.35 309.92-35.3 312.17-35.25 314.42-35.25L314.42-35.25Q316.87-35.25 319.15-35.3 321.42-35.35 322.37-35.35L322.37-35.35Q328.87-35.35 332.1-33.15 335.32-30.95 335.32-27.5L335.32-27.5Q335.32-25.75 334.17-23.93 333.02-22.1 330.65-20.68 328.27-19.25 324.57-18.7L324.57-18.7 324.57-18.6Q329.47-18.3 332.4-16.93 335.32-15.55 336.62-13.65 337.92-11.75 337.92-9.7L337.92-9.7Q337.92-4.85 334.07-2.43 330.22 0 323.52 0L323.52 0Q322.32 0 320.02-0.08 317.72-0.15 314.52-0.15L314.52-0.15Q312.17-0.15 309.92-0.13 307.67-0.1 306.32 0L306.32 0 306.32-1Q307.87-1.1 308.65-1.4 309.42-1.7 309.7-2.6 309.97-3.5 309.97-5.3L309.97-5.3 309.97-30.1Q309.97-31.95 309.7-32.83 309.42-33.7 308.65-34.02 307.87-34.35 306.32-34.4L306.32-34.4ZM321.92-34.4L321.92-34.4Q320.07-34.4 319.55-33.55 319.02-32.7 319.02-30.1L319.02-30.1 319.02-5.3Q319.02-2.7 319.67-1.93 320.32-1.15 322.37-1.15L322.37-1.15Q325.57-1.15 327.05-3.43 328.52-5.7 328.52-9.9L328.52-9.9Q328.52-13.75 326.65-15.85 324.77-17.95 320.42-17.95L320.42-17.95 316.47-17.95Q316.47-17.95 316.47-18.38 316.47-18.8 316.47-18.8L316.47-18.8 320.77-18.8Q322.92-18.8 324.07-19.93 325.22-21.05 325.67-22.93 326.12-24.8 326.12-26.95L326.12-26.95Q326.12-30.65 325.15-32.52 324.17-34.4 321.92-34.4ZM368.02-35.4L368.02-35.4Q367.82-33.05 367.75-30.85 367.67-28.65 367.67-27.5L367.67-27.5Q367.67-26.5 367.72-25.58 367.77-24.65 367.82-24L367.82-24 366.67-24Q366.12-27.9 364.9-30.15 363.67-32.4 361.9-33.33 360.12-34.25 357.97-34.25L357.97-34.25 356.62-34.25Q355.22-34.25 354.52-34.02 353.82-33.8 353.6-33.1 353.37-32.4 353.37-30.9L353.37-30.9 353.37-4.5Q353.37-3.05 353.6-2.33 353.82-1.6 354.52-1.38 355.22-1.15 356.62-1.15L356.62-1.15 358.67-1.15Q360.62-1.15 362.4-2.18 364.17-3.2 365.57-5.68 366.97-8.15 367.67-12.4L367.67-12.4 368.82-12.4Q368.67-10.7 368.67-8L368.67-8Q368.67-6.8 368.72-4.6 368.77-2.4 369.02 0L369.02 0Q366.47-0.1 363.27-0.13 360.07-0.15 357.57-0.15L357.57-0.15Q355.82-0.15 352.9-0.15 349.97-0.15 346.72-0.13 343.47-0.1 340.67 0L340.67 0 340.67-1Q342.22-1.1 343-1.4 343.77-1.7 344.05-2.6 344.32-3.5 344.32-5.3L344.32-5.3 344.32-30.1Q344.32-31.95 344.05-32.83 343.77-33.7 343-34.02 342.22-34.35 340.67-34.4L340.67-34.4 340.67-35.4Q343.47-35.35 346.72-35.3 349.97-35.25 352.9-35.25 355.82-35.25 357.57-35.25L357.57-35.25Q359.87-35.25 362.8-35.27 365.72-35.3 368.02-35.4ZM351.87-18.3L360.47-18.3Q360.47-18.3 360.47-17.8 360.47-17.3 360.47-17.3L360.47-17.3 351.87-17.3Q351.87-17.3 351.87-17.8 351.87-18.3 351.87-18.3L351.87-18.3ZM360.77-24.9L361.92-24.9Q361.72-22.05 361.75-20.55 361.77-19.05 361.77-17.8L361.77-17.8Q361.77-16.55 361.82-15.05 361.87-13.55 362.07-10.7L362.07-10.7 360.92-10.7Q360.67-12.5 359.87-14 359.07-15.5 357.72-16.4 356.37-17.3 354.42-17.3L354.42-17.3 354.42-18.3Q356.37-18.3 357.67-19.38 358.97-20.45 359.75-21.98 360.52-23.5 360.77-24.9L360.77-24.9ZM404.17-35.4L404.17-35.4Q403.97-32.65 403.89-30.1 403.82-27.55 403.82-26.2L403.82-26.2Q403.82-25.1 403.87-24.15 403.92-23.2 403.97-22.5L403.97-22.5 402.82-22.5Q401.82-26.95 400.42-29.53 399.02-32.1 397.24-33.18 395.47-34.25 393.42-34.25L393.42-34.25 392.82-34.25 392.82-5.7Q392.82-3.65 393.24-2.65 393.67-1.65 394.84-1.33 396.02-1 398.27-1L398.27-1 398.27 0Q396.62-0.05 393.84-0.1 391.07-0.15 388.07-0.15L388.07-0.15Q385.12-0.15 382.52-0.1 379.92-0.05 378.32 0L378.32 0 378.32-1Q380.57-1 381.77-1.33 382.97-1.65 383.37-2.65 383.77-3.65 383.77-5.7L383.77-5.7 383.77-34.25 383.22-34.25Q381.12-34.25 379.37-33.18 377.62-32.1 376.22-29.55 374.82-27 373.77-22.5L373.77-22.5 372.62-22.5Q372.72-23.2 372.74-24.15 372.77-25.1 372.77-26.2L372.77-26.2Q372.77-27.55 372.69-30.1 372.62-32.65 372.42-35.4L372.42-35.4Q374.77-35.35 377.59-35.3 380.42-35.25 383.22-35.25 386.02-35.25 388.32-35.25L388.32-35.25Q390.62-35.25 393.44-35.25 396.27-35.25 399.07-35.3 401.87-35.35 404.17-35.4Z" opacity="1" transform="matrix(1,0,0,1,0,0)" fill="#ffffff" class="undefined-text-0" data-fill-palette-color="primary" id="text-0"></path></svg></g></svg></g></svg></g></svg></g><g><svg viewBox="0 0 72.49067049439256 94.55420855583127" height="94.55420855583127" width="72.49067049439256"><g><svg xmlns="http://www.w3.org/2000/svg" xmlns:xlink="http://www.w3.org/1999/xlink" version="1.1" x="0" y="0" viewBox="22.306962966918945 13.879000663757324 55.384857177734375 72.24200439453125" enable-background="new 0 0 100 100" xml:space="preserve" height="94.55420855583127" width="72.49067049439256" class="icon-icon-0" data-fill-palette-color="accent" id="icon-0"><g fill="#ffffff" data-fill-palette-color="accent"><path fill="#ffffff" d="M50.849 79.545c0 3.633 2.947 6.576 6.579 6.576 3.633 0 6.577-2.943 6.577-6.576 0-3.635-2.944-6.578-6.577-6.578C53.796 72.967 50.849 75.91 50.849 79.545z" data-fill-palette-color="accent"></path><path fill="#ffffff" d="M58.784 32.333l6.368 5.329c1.374 1.019 7.989 0.06 10.034-0.105 1.892-0.154 2.555-1.537 2.503-2.524-0.046-0.917-0.915-2.426-3.001-2.146-2.086 0.281-7.124 0.308-7.124 0.308l-7.159-6.146c0 0-2.621-0.775-8.865-0.576-6.245 0.2-8.743 1.913-8.743 1.913l0.514 26.227 0.722 1.688-2.387 10.158L26.805 78.588c0 0-2.312 2.301 0.464 6.074l20.925-14.986 5.831-10.934c0 0 4.592-11.318 5.826-23.102C59.851 35.64 58.462 34.35 58.784 32.333z" data-fill-palette-color="accent"></path><path fill="#ffffff" d="M51.54 24.124c-1.347 0.043-2.514 0.137-3.53 0.268-0.74-1.631-1.154-3.649-1.154-5.546 0-4.121 3.803-4.967 4.965-4.967 0.869 0 4.968 0.445 4.968 4.967 0 1.906-0.348 3.771-0.974 5.295C54.636 24.087 53.223 24.07 51.54 24.124z" data-fill-palette-color="accent"></path><path fill="#ffffff" d="M40.59 29.216l0.302 6.771-8.126 1.603c0 0-7.146 5.001-7.436 5.168-0.288 0.169-1.973 0.104-2.715-1.327-0.74-1.432-0.074-2.588 1.223-3.472s7.981-5.468 7.981-5.468L40.59 29.216z" data-fill-palette-color="accent"></path><path fill="#ffffff" d="M43.026 75.881l-1.348 5.057c0 0 0.183 2.918 4.138 2.902l2.954-11.541L43.026 75.881z" data-fill-palette-color="accent"></path></g></svg></g></svg></g></svg></g></svg><rect width="395.52" height="78.47885706322745" fill="none" stroke="none" visibility="hidden"></rect></g></svg></g></svg>